<?xml version="1.0" encoding="UTF-8" standalone="no" ?>
<!DOCTYPE svg PUBLIC "-//W3C//DTD SVG 1.1//EN" "http://www.w3.org/Graphics/SVG/1.1/DTD/svg11.dtd">
<svg xmlns="http://www.w3.org/2000/svg" xmlns:xlink="http://www.w3.org/1999/xlink" version="1.1" width="300" height="300" viewBox="0 0 300 300" xml:space="preserve">
<desc>Created with Fabric.js 5.3.0</desc>
<defs>
</defs>
<g transform="matrix(1 0 0 1 150.5 150.5)"  >
<path style="stroke: none; stroke-width: 1; stroke-dasharray: none; stroke-linecap: butt; stroke-dashoffset: 0; stroke-linejoin: miter; stroke-miterlimit: 4; fill: rgb(255,204,77); fill-rule: nonzero; opacity: 1;"  transform=" translate(-100.4, -100.47)" d="M 99.9328 200.465 C 155.161 200.723 200.141 156.161 200.399 100.933 C 200.657 45.705 156.095 0.724861 100.867 0.466964 C 45.6389 0.209067 0.658792 44.771 0.400895 99.9989 C 0.142998 155.227 44.705 200.207 99.9328 200.465 Z" stroke-linecap="round" />
</g>
<g transform="matrix(1 0 0 1 153.28 193.76)"  >
<path style="stroke: none; stroke-width: 1; stroke-dasharray: none; stroke-linecap: butt; stroke-dashoffset: 0; stroke-linejoin: miter; stroke-miterlimit: 4; fill: rgb(101,71,27); fill-rule: nonzero; opacity: 1;"  transform=" translate(-36.78, -15.25)" d="M 62.3833 2.13333 C 47.0333 -1.57222 13.0889 1.79999 0.372201 26.6055 C -0.0833547 27.4833 0.14998 28.5667 0.927758 29.1833 C 1.30554 29.4889 1.76665 29.6389 2.22776 29.6389 C 2.69998 29.6389 3.17776 29.4778 3.56665 29.1556 C 20.7 14.8222 44.8778 14.8222 59.3222 14.8222 C 68.4055 14.8222 73.4111 14.8222 73.4111 10.8889 C 73.4111 6.95556 69.4944 3.84445 62.3833 2.13333 Z" stroke-linecap="round" />
</g>
<g transform="matrix(1 0 0 1 251.28 109.17)"  >
<path style="stroke: none; stroke-width: 1; stroke-dasharray: none; stroke-linecap: butt; stroke-dashoffset: 0; stroke-linejoin: miter; stroke-miterlimit: 4; fill: rgb(93,173,236); fill-rule: nonzero; opacity: 1;"  transform=" translate(-28.67, -42.22)" d="M 56.4444 56.1111 C 56.4444 71.4555 44.0111 83.8889 28.6667 83.8889 C 13.3222 83.8889 0.888885 71.4555 0.888885 56.1111 C 0.888885 40.7667 23.1111 0.555542 28.6667 0.555542 C 34.2222 0.555542 56.4444 40.7667 56.4444 56.1111 Z" stroke-linecap="round" />
</g>
<g transform="matrix(1 0 0 1 151.01 61)"  >
<g style=""   >
		<g transform="matrix(1 0 0 1 3.06 -17.44)"  >
<path style="stroke: none; stroke-width: 1; stroke-dasharray: none; stroke-linecap: butt; stroke-dashoffset: 0; stroke-linejoin: miter; stroke-miterlimit: 4; fill: rgb(41,47,51); fill-rule: nonzero; opacity: 1;"  transform=" translate(-87.56, -30.56)" d="M 165.913 16.7292 L 88.1356 0.0625 C 87.7578 -0.0208333 87.3578 -0.0208333 86.9745 0.0625 L 9.19669 16.7292 C 7.95224 16.9958 7.04669 18.0792 7.00224 19.3514 C 6.96336 20.6236 7.79113 21.7625 9.01891 22.1181 L 36.4856 29.9681 C 35.4189 33.2736 34.78 37.0903 34.78 41.6681 C 34.78 54.3903 53.03 61.1125 87.5578 61.1125 C 122.086 61.1125 140.336 54.3903 140.336 41.6681 C 140.336 37.0903 139.697 33.2736 138.63 29.9681 L 166.102 22.1181 C 167.33 21.7681 168.158 20.6236 168.113 19.3514 C 168.069 18.0792 167.163 16.9958 165.913 16.7292 Z" stroke-linecap="round" />
</g>
		<g transform="matrix(1 0 0 1 3.06 -17.44)"  >
<path style="stroke: none; stroke-width: 1; stroke-dasharray: none; stroke-linecap: butt; stroke-dashoffset: 0; stroke-linejoin: miter; stroke-miterlimit: 4; fill: rgb(102,117,127); fill-rule: nonzero; opacity: 1;"  transform=" translate(-87.56, -30.56)" d="M 168.002 18.6847 C 167.58 17.2125 166.058 16.3681 164.569 16.7736 L 87.5578 38.7792 L 10.5411 16.7736 C 9.08558 16.3681 7.53002 17.2069 7.1078 18.6847 C 6.68558 20.1569 7.54113 21.6958 9.01891 22.1181 L 86.7967 44.3403 C 87.0467 44.4125 87.3023 44.4458 87.5523 44.4458 C 87.8023 44.4458 88.0634 44.4125 88.3134 44.3403 L 166.091 22.1181 C 167.574 21.6958 168.43 20.1569 168.002 18.6847 Z" stroke-linecap="round" />
</g>
		<g transform="matrix(1 0 0 1 -40.97 6.43)"  >
<path style="stroke: none; stroke-width: 1; stroke-dasharray: none; stroke-linecap: butt; stroke-dashoffset: 0; stroke-linejoin: miter; stroke-miterlimit: 4; fill: rgb(255,204,77); fill-rule: nonzero; opacity: 1;"  transform=" translate(-43.53, -54.44)" d="M 83.5333 12.9667 L 6.06666 18.4998 C 5.92222 18.511 3.52222 18.8165 3.52222 21.2665 L 3.28889 57.5573 C 1.62778 58.5906 0.511108 61.6684 0.511108 70.9184 C 0.511108 84.7239 3 95.9184 6.06666 95.9184 C 9.13333 95.9184 11.6222 84.7239 11.6222 70.9184 C 11.6222 61.6684 10.5056 58.5906 8.84444 57.5573 L 9.07777 23.8221 L 84 18.5 C 85.5222 18.3722 86.6611 17.0333 86.5333 15.5 C 86.4056 13.9722 85.0444 12.8222 83.5333 12.9667 Z" stroke-linecap="round" />
</g>
</g>
</g>
<g transform="matrix(0.53 0 0 0.53 252.29 77.18)"  >
<g style=""   >
		<g transform="matrix(1 0 0 1 3.06 -17.44)"  >
<path style="stroke: none; stroke-width: 1; stroke-dasharray: none; stroke-linecap: butt; stroke-dashoffset: 0; stroke-linejoin: miter; stroke-miterlimit: 4; fill: rgb(41,47,51); fill-rule: nonzero; opacity: 1;"  transform=" translate(-87.56, -30.56)" d="M 165.913 16.7292 L 88.1356 0.0625 C 87.7578 -0.0208333 87.3578 -0.0208333 86.9745 0.0625 L 9.19669 16.7292 C 7.95224 16.9958 7.04669 18.0792 7.00224 19.3514 C 6.96336 20.6236 7.79113 21.7625 9.01891 22.1181 L 36.4856 29.9681 C 35.4189 33.2736 34.78 37.0903 34.78 41.6681 C 34.78 54.3903 53.03 61.1125 87.5578 61.1125 C 122.086 61.1125 140.336 54.3903 140.336 41.6681 C 140.336 37.0903 139.697 33.2736 138.63 29.9681 L 166.102 22.1181 C 167.33 21.7681 168.158 20.6236 168.113 19.3514 C 168.069 18.0792 167.163 16.9958 165.913 16.7292 Z" stroke-linecap="round" />
</g>
		<g transform="matrix(1 0 0 1 3.06 -17.44)"  >
<path style="stroke: none; stroke-width: 1; stroke-dasharray: none; stroke-linecap: butt; stroke-dashoffset: 0; stroke-linejoin: miter; stroke-miterlimit: 4; fill: rgb(102,117,127); fill-rule: nonzero; opacity: 1;"  transform=" translate(-87.56, -30.56)" d="M 168.002 18.6847 C 167.58 17.2125 166.058 16.3681 164.569 16.7736 L 87.5578 38.7792 L 10.5411 16.7736 C 9.08558 16.3681 7.53002 17.2069 7.1078 18.6847 C 6.68558 20.1569 7.54113 21.6958 9.01891 22.1181 L 86.7967 44.3403 C 87.0467 44.4125 87.3023 44.4458 87.5523 44.4458 C 87.8023 44.4458 88.0634 44.4125 88.3134 44.3403 L 166.091 22.1181 C 167.574 21.6958 168.43 20.1569 168.002 18.6847 Z" stroke-linecap="round" />
</g>
		<g transform="matrix(1 0 0 1 -40.97 6.43)"  >
<path style="stroke: none; stroke-width: 1; stroke-dasharray: none; stroke-linecap: butt; stroke-dashoffset: 0; stroke-linejoin: miter; stroke-miterlimit: 4; fill: rgb(255,204,77); fill-rule: nonzero; opacity: 1;"  transform=" translate(-43.53, -54.44)" d="M 83.5333 12.9667 L 6.06666 18.4998 C 5.92222 18.511 3.52222 18.8165 3.52222 21.2665 L 3.28889 57.5573 C 1.62778 58.5906 0.511108 61.6684 0.511108 70.9184 C 0.511108 84.7239 3 95.9184 6.06666 95.9184 C 9.13333 95.9184 11.6222 84.7239 11.6222 70.9184 C 11.6222 61.6684 10.5056 58.5906 8.84444 57.5573 L 9.07777 23.8221 L 84 18.5 C 85.5222 18.3722 86.6611 17.0333 86.5333 15.5 C 86.4056 13.9722 85.0444 12.8222 83.5333 12.9667 Z" stroke-linecap="round" />
</g>
</g>
</g>
<g transform="matrix(-0.95 -0.32 0.32 -0.95 143 135.49)"  >
<g style=""   >
		<g transform="matrix(1 0 0 1 27.11 -5.09)"  >
<path style="stroke: none; stroke-width: 1; stroke-dasharray: none; stroke-linecap: butt; stroke-dashoffset: 0; stroke-linejoin: miter; stroke-miterlimit: 4; fill: rgb(244,247,249); fill-rule: nonzero; opacity: 1;"  transform=" translate(-92.11, -37.91)" d="M 128.689 30.0666 C 133.017 50.2666 120.15 70.1555 99.95 74.4833 C 79.75 78.8111 59.8611 65.9444 55.5278 45.7444 C 51.2 25.5444 64.0667 5.65554 84.2667 1.32776 C 104.467 -3.00002 124.361 9.86109 128.689 30.0666 Z" stroke-linecap="round" />
</g>
		<g transform="matrix(1 0 0 1 24.93 -11.38)"  >
<path style="stroke: none; stroke-width: 1; stroke-dasharray: none; stroke-linecap: butt; stroke-dashoffset: 0; stroke-linejoin: miter; stroke-miterlimit: 4; fill: rgb(41,47,51); fill-rule: nonzero; opacity: 1;"  transform=" translate(-89.92, -31.62)" d="M 89.9222 42.9333 C 96.1722 42.9333 101.239 37.8667 101.239 31.6167 C 101.239 25.3666 96.1722 20.3 89.9222 20.3 C 83.6722 20.3 78.6055 25.3666 78.6055 31.6167 C 78.6055 37.8667 83.6722 42.9333 89.9222 42.9333 Z" stroke-linecap="round" />
</g>
		<g transform="matrix(1 0 0 1 -42.12 20.93)"  >
<path style="stroke: none; stroke-width: 1; stroke-dasharray: none; stroke-linecap: butt; stroke-dashoffset: 0; stroke-linejoin: miter; stroke-miterlimit: 4; fill: rgb(244,247,249); fill-rule: nonzero; opacity: 1;"  transform=" translate(-22.88, -63.93)" d="M 44.2667 59.3444 C 46.8 71.1556 39.2722 82.7833 27.4611 85.3167 C 15.65 87.85 4.02224 80.3222 1.4889 68.5111 C -1.04443 56.7 6.48335 45.0722 18.2945 42.5389 C 30.1056 40.0056 41.7333 47.5333 44.2667 59.3444 Z" stroke-linecap="round" />
</g>
		<g transform="matrix(1 0 0 1 -42.12 25.09)"  >
<path style="stroke: none; stroke-width: 1; stroke-dasharray: none; stroke-linecap: butt; stroke-dashoffset: 0; stroke-linejoin: miter; stroke-miterlimit: 4; fill: rgb(41,47,51); fill-rule: nonzero; opacity: 1;"  transform=" translate(-22.88, -68.09)" d="M 25.1428 78.641 C 30.9691 77.3925 34.6801 71.6573 33.4316 65.831 C 32.1831 60.0047 26.4478 56.2937 20.6215 57.5422 C 14.7953 58.7907 11.0843 64.526 12.3328 70.3523 C 13.5813 76.1785 19.3165 79.8895 25.1428 78.641 Z" stroke-linecap="round" />
</g>
</g>
</g>
<g transform="matrix(1 0 0 1 195.62 161.79)"  >
<g style=""   >
		<g transform="matrix(1 0 0 1 37.85 20.73)"  >
<path style="stroke: none; stroke-width: 1; stroke-dasharray: none; stroke-linecap: butt; stroke-dashoffset: 0; stroke-linejoin: miter; stroke-miterlimit: 4; fill: rgb(41,47,51); fill-rule: nonzero; opacity: 1;"  transform=" translate(-88.36, -103.24)" d="M 88.3556 165 C 85.1056 165 82.4722 162.367 82.4722 159.117 L 82.4722 47.3555 C 82.4722 44.1055 85.1056 41.4722 88.3556 41.4722 C 91.6056 41.4722 94.2389 44.1055 94.2389 47.3555 L 94.2389 159.122 C 94.2333 162.367 91.6056 165 88.3556 165 Z" stroke-linecap="round" />
</g>
		<g transform="matrix(1 0 0 1 -0.38 -38.09)"  >
<path style="stroke: none; stroke-width: 1; stroke-dasharray: none; stroke-linecap: butt; stroke-dashoffset: 0; stroke-linejoin: miter; stroke-miterlimit: 4; fill: rgb(103,117,127); fill-rule: nonzero; opacity: 1;"  transform=" translate(-50.12, -44.41)" d="M 88.3556 35.5889 C 88.0556 35.5889 87.7722 35.6555 87.4778 35.6778 C 83.4111 15.5222 65.5722 0.294434 44.2333 0.294434 C 19.9056 0.294434 0.116669 20.0833 0.116669 44.4111 C 0.116669 68.7389 19.9056 88.5278 44.2333 88.5278 C 63.5 88.5278 79.8778 76.0944 85.8778 58.8444 C 86.6778 59.0167 87.5 59.1166 88.35 59.1166 C 94.85 59.1166 100.117 53.85 100.117 47.35 C 100.117 40.8555 94.85 35.5889 88.3556 35.5889 Z M 44.2333 76.7666 C 26.3944 76.7666 11.8833 62.2555 11.8833 44.4111 C 11.8833 26.5667 26.4 12.0555 44.2333 12.0555 C 62.0722 12.0555 76.5889 26.5667 76.5889 44.4111 C 76.5889 62.2555 62.0722 76.7666 44.2333 76.7666 Z" stroke-linecap="round" />
</g>
		<g transform="matrix(1 0 0 1 -6.26 -38.09)"  >
<path style="stroke: none; stroke-width: 1; stroke-dasharray: none; stroke-linecap: butt; stroke-dashoffset: 0; stroke-linejoin: miter; stroke-miterlimit: 4; fill: rgb(189,221,244); fill-rule: nonzero; opacity: 1;"  transform=" translate(-44.23, -44.41)" d="M 61.8278 17.2834 C 56.7611 13.9889 50.7278 12.0612 44.2333 12.0612 C 26.3667 12.0612 11.8778 26.5445 11.8778 44.4167 C 11.8778 50.9112 13.8111 56.9445 17.1 62.0112 L 61.8278 17.2834 Z M 30.4278 73.6389 C 34.6222 75.6223 39.2889 76.7667 44.2333 76.7667 C 62.1 76.7667 76.5889 62.2834 76.5889 44.4112 C 76.5889 39.4667 75.4444 34.7945 73.4611 30.6056 L 30.4278 73.6389 Z" stroke-linecap="round" />
</g>
</g>
</g>
<g transform="matrix(0.92 -0.38 0.38 0.92 74 204.5)"  >
<g style=""   >
		<g transform="matrix(1 0 0 1 -0.69 3.26)"  >
<path style="stroke: none; stroke-width: 1; stroke-dasharray: none; stroke-linecap: butt; stroke-dashoffset: 0; stroke-linejoin: miter; stroke-miterlimit: 4; fill: rgb(255,220,93); fill-rule: nonzero; opacity: 1;"  transform=" translate(-49.3, -49.75)" d="M 92.4722 23.9666 C 92.4028 23.9444 68.0528 16.6666 59.7194 13.8889 C 56.3861 12.7778 1.38611 -5.55558 1.38611 58.3333 C 1.38611 60.1027 6.94166 88.8889 12.4972 88.8889 L 43.0528 88.8889 C 66.3167 88.8889 58.725 59.2222 87.275 55.2611 C 92.1055 54.5916 94.5555 52.1722 94.125 48.1333 C 93.6667 43.8305 88.6389 42.4139 84.3083 42.4139 C 81.125 42.4139 68.325 43.0611 59.2361 47.8333 C 58.4417 42.8083 56.9417 36.6861 56.9417 30.5528 C 70.8306 33.3305 87.7528 37.0333 88.0778 37.1416 C 91.7167 38.3472 95.65 36.3889 96.8611 32.7472 C 98.0778 29.1111 96.1111 25.1805 92.4722 23.9666 Z" stroke-linecap="round" />
</g>
		<g transform="matrix(1 0 0 1 -12.5 -1.69)"  >
<path style="stroke: none; stroke-width: 1; stroke-dasharray: none; stroke-linecap: butt; stroke-dashoffset: 0; stroke-linejoin: miter; stroke-miterlimit: 4; fill: rgb(239,150,69); fill-rule: nonzero; opacity: 1;"  transform=" translate(-37.49, -44.81)" d="M 53.3528 20.2584 C 52.2722 19.1722 50.5111 19.1695 49.425 20.2556 C 48.3389 21.3389 48.3361 23.0972 49.4222 24.1861 C 49.4694 24.2334 54.1556 29.0111 54.1556 36.1111 L 54.1556 55.8584 C 54.1556 58.225 52.7639 59.0639 51.4611 59.0639 C 50.0833 59.0639 48.6139 58.1417 48.6139 55.5528 L 48.6139 49.9972 C 48.6139 39.5334 47.7722 28.4139 41.5222 25.2889 C 40.1472 24.6028 38.4806 25.1611 37.7944 26.5306 C 37.1083 27.9028 37.6639 29.5722 39.0361 30.2584 C 40.8695 31.175 43.0556 35.3445 43.0556 49.9945 L 43.0556 52.7611 C 43.0556 52.7611 43.0444 55.5417 43.0444 61.4111 C 43.0444 63.7778 41.6528 64.6167 40.35 64.6167 C 38.9722 64.6167 37.5028 63.6945 37.5028 61.1056 L 37.5028 55.55 C 37.5028 45.0861 36.6611 33.9667 30.4111 30.8417 C 29.0361 30.1528 27.3694 30.7139 26.6833 32.0834 C 25.9972 33.4556 26.5528 35.125 27.925 35.8111 C 29.7583 36.7278 31.9444 40.8972 31.9444 55.5472 L 31.9444 61.1028 C 31.9444 61.1611 31.9583 61.2111 31.9583 61.2695 C 31.9556 61.3167 31.9306 61.3584 31.9306 61.4056 C 31.9306 63.7723 30.5389 64.6111 29.2361 64.6111 C 27.8583 64.6222 26.3889 63.7 26.3889 61.1111 C 26.3889 51.6834 26.3889 39.95 19.2972 36.4028 C 17.9222 35.7139 16.2556 36.275 15.5694 37.6445 C 14.8833 39.0167 15.4389 40.6861 16.8111 41.3722 C 20.8333 43.3834 20.8333 54.4806 20.8333 61.1111 C 20.8333 67.0639 25.0611 70.1778 29.2361 70.1778 C 31.2417 70.1778 33.25 69.4472 34.7889 68.0417 C 36.3444 69.4445 38.3472 70.1778 40.3472 70.1778 C 43.7806 70.1778 47.2167 68.0417 48.2528 63.9778 C 49.275 64.3972 50.3667 64.6222 51.4583 64.6222 C 55.5583 64.6222 59.7083 61.6139 59.7083 55.8611 L 59.7083 36.1111 C 59.7083 26.7361 53.6139 20.5195 53.3528 20.2584 Z" stroke-linecap="round" />
</g>
</g>
</g>
<g transform="matrix(0.38 0 0 0.38 102.95 185.95)"  >
<g style=""   >
		<g transform="matrix(1 0 0 1 16.64 23.61)"  >
<path style="stroke: none; stroke-width: 1; stroke-dasharray: none; stroke-linecap: butt; stroke-dashoffset: 0; stroke-linejoin: miter; stroke-miterlimit: 4; fill: rgb(234,89,110); fill-rule: nonzero; opacity: 1;"  transform=" translate(-66.64, -68.61)" d="M 83.0444 64.075 C 83.0528 64.8611 82.85 65.8889 82.6389 66.7361 C 81.1639 72.6944 74.6139 79.3805 65.3944 78.7722 C 57.0389 78.2222 50.2333 74.2111 50.2333 68.5861 C 50.2333 62.9611 57.0222 58.4 65.3944 58.4 C 73.7667 58.4 82.9917 58.45 83.0444 64.075 Z" stroke-linecap="round" />
</g>
		<g transform="matrix(1 0 0 1 11.69 20.79)"  >
<path style="stroke: none; stroke-width: 1; stroke-dasharray: none; stroke-linecap: butt; stroke-dashoffset: 0; stroke-linejoin: miter; stroke-miterlimit: 4; fill: rgb(221,46,68); fill-rule: nonzero; opacity: 1;"  transform=" translate(-61.69, -65.79)" d="M 65.3944 59.3445 C 60.8972 59.3445 50.6333 60.5889 48.2778 60.5889 C 44.1167 60.5889 40.7417 63.2 40.7417 66.4222 C 40.7417 67.9722 41.5361 69.3722 42.8083 70.4167 C 42.8083 70.4167 45.6028 73.2195 50.6361 71.875 C 52.8389 71.2861 56.4222 66.9139 62.7306 66.2194 C 65.8722 65.8722 71.7583 68.3028 82.1028 68.3611 C 82.5472 67.4056 82.6389 66.7417 82.6389 66.7417 C 82.6389 61.1111 73.7667 59.3445 65.3944 59.3445 Z" stroke-linecap="round" />
</g>
		<g transform="matrix(1 0 0 1 -0.22 -9.84)"  >
<path style="stroke: none; stroke-width: 1; stroke-dasharray: none; stroke-linecap: butt; stroke-dashoffset: 0; stroke-linejoin: miter; stroke-miterlimit: 4; fill: rgb(244,171,186); fill-rule: nonzero; opacity: 1;"  transform=" translate(-49.78, -35.16)" d="M 82.6389 66.7361 C 82.6389 66.7361 88.7056 65.5056 92.4778 60.5444 C 96.875 54.7583 96.2972 48.5667 96.2972 48.5667 C 100.753 40.2333 94.9083 32.4194 94.9083 32.4194 C 94.3278 23.6222 88.8889 19.9778 88.8889 19.9778 C 85.3583 11.5861 77.5472 9.33056 77.5472 9.33056 C 71.4139 2.15556 60.5333 2.38611 60.5333 2.38611 C 60.5333 2.38611 50.3389 -1.35 36.3444 2.85 C 34.0306 3.54444 26.275 5.16389 20.6028 8.63611 C 2.725 19.5806 1.37222 36.6472 1.62222 39.4222 C 3.00833 54.9306 13.8889 57.7083 20.8333 59.3278 C 22.4528 63.725 28.4139 71.8278 39.1194 68.8194 C 52.3139 66.5056 57.8694 62.5694 61.1111 62.5694 C 64.3528 62.5694 73.3806 66.0417 82.6389 66.7361 Z" stroke-linecap="round" />
</g>
		<g transform="matrix(1 0 0 1 -1.32 -10.99)"  >
<path style="stroke: none; stroke-width: 1; stroke-dasharray: none; stroke-linecap: butt; stroke-dashoffset: 0; stroke-linejoin: miter; stroke-miterlimit: 4; fill: rgb(234,89,110); fill-rule: nonzero; opacity: 1;"  transform=" translate(-48.68, -34.01)" d="M 49.2694 41.8 C 55.7361 38.3139 59.2417 38.6389 62.3361 38.9195 C 63.3194 39.0083 64.25 39.0778 65.1917 39.0722 C 70.7028 38.9472 75.1667 36.625 77.1417 34.3778 C 77.6472 33.8 77.5889 32.925 77.0139 32.4167 C 76.4417 31.9111 75.5667 31.9639 75.0528 32.5417 C 73.5306 34.275 69.7778 36.1889 65.1278 36.2945 C 64.2944 36.3195 63.4583 36.2361 62.5917 36.1556 C 59.2722 35.8472 55.15 35.4695 47.95 39.3556 C 46.1028 40.3528 43.5694 40.7222 40.825 41 C 34.7222 32.1917 38.3944 24.5195 39.4444 22.6917 C 39.5472 22.6972 39.6472 22.7306 39.7528 22.7306 C 40.8639 22.7306 41.9806 22.4583 42.9917 21.8861 C 43.6583 21.5083 43.8944 20.6611 43.5167 19.9945 C 43.1389 19.3278 42.2917 19.0917 41.625 19.4695 C 39.8472 20.475 37.5083 19.8945 36.4028 18.1722 C 35.9889 17.525 35.1306 17.3361 34.4861 17.7528 C 33.8417 18.1667 33.6528 19.025 34.0667 19.6695 C 34.725 20.7 35.6528 21.475 36.7 21.9945 C 35.2528 24.9333 32.5056 32.6611 37.7333 41.3028 C 34.0556 41.6639 30.3722 42.1833 27.4889 44.0417 C 25.6278 45.2417 23.725 46.9972 22.2722 49.0167 C 20.525 48.7167 14.1278 47.1417 13.0111 40.0417 C 13.7056 39.5028 14.2667 38.7917 14.6139 37.9139 C 14.8972 37.2 14.5472 36.3945 13.8333 36.1111 C 13.1195 35.8278 12.3139 36.1778 12.0306 36.8917 C 11.7833 37.5167 11.3361 37.9722 10.7695 38.1722 C 10.2083 38.3722 9.57223 38.3056 8.98334 37.9778 C 8.30834 37.6028 7.46667 37.85 7.09445 38.5167 C 6.72223 39.1861 6.96389 40.0333 7.63334 40.4056 C 8.42223 40.8445 9.26667 41.0667 10.1056 41.0667 C 10.2083 41.0667 10.3056 41.0195 10.4083 41.0139 C 11.7306 47.7167 17.0278 50.6611 20.775 51.5528 C 20.2861 52.6306 19.9556 53.7417 19.8556 54.8639 C 19.7889 55.625 20.3528 56.3028 21.1167 56.3695 L 21.2417 56.375 C 21.9528 56.375 22.5611 55.8333 22.625 55.1083 C 22.925 51.7389 26.1389 48.2195 28.9944 46.3722 C 31.6722 44.6472 35.5917 44.2834 39.3861 43.9306 C 43.0667 43.5945 46.5444 43.2722 49.2694 41.8 Z M 85.0083 37.6222 C 84.6444 38.2945 84.8944 39.1389 85.5639 39.5028 C 85.775 39.6195 86.0056 39.675 86.2306 39.675 C 86.7194 39.675 87.1944 39.4167 87.4472 38.9556 C 87.5 38.8611 92.5639 29.375 83.0833 23 C 82.45 22.5778 81.5861 22.7417 81.1556 23.3778 C 80.7278 24.0139 80.8972 24.8778 81.5333 25.3056 C 88.8778 30.2445 85.1694 37.3222 85.0083 37.6222 Z M 27.4333 15.1945 C 27.8667 15.1945 28.2917 14.9945 28.5611 14.6167 C 32.5889 9.0139 38.1667 10.9306 38.4028 11.0195 C 39.1222 11.2806 39.9139 10.9139 40.1806 10.1972 C 40.4472 9.47779 40.0806 8.68057 39.3611 8.4139 C 36.6944 7.42501 30.5361 7.1139 26.3056 12.9972 C 25.8583 13.6167 26 14.4861 26.6222 14.9333 C 26.8694 15.1111 27.1528 15.1945 27.4333 15.1945 Z M 63.7444 9.95001 C 69.925 9.44723 72.7361 13.9278 72.8639 14.1389 C 73.125 14.5778 73.5861 14.8222 74.0611 14.8222 C 74.3 14.8222 74.5444 14.7611 74.7639 14.6306 C 75.425 14.2417 75.6472 13.3917 75.2611 12.7306 C 75.1111 12.4778 71.5389 6.56946 63.5278 7.18057 C 62.7639 7.2389 62.1944 7.90835 62.2528 8.67501 C 62.3139 9.4389 63.0056 10.0195 63.7444 9.95001 Z M 89.1611 50.5361 C 88.4778 50.4972 87.725 51.0389 87.6639 51.8056 C 87.6583 51.8556 87.2167 56.5806 82.3583 58.1778 C 81.6306 58.4167 81.2333 59.2 81.475 59.9306 C 81.6639 60.5139 82.2111 60.8861 82.7944 60.8861 C 82.9389 60.8861 83.0833 60.8639 83.2278 60.8167 C 89.8167 58.6556 90.4111 52.3056 90.4333 52.0361 C 90.4917 51.2695 89.925 50.5972 89.1611 50.5361 Z" stroke-linecap="round" />
</g>
		<g transform="matrix(1 0 0 1 0.91 -10.95)"  >
<path style="stroke: none; stroke-width: 1; stroke-dasharray: none; stroke-linecap: butt; stroke-dashoffset: 0; stroke-linejoin: miter; stroke-miterlimit: 4; fill: rgb(234,89,110); fill-rule: nonzero; opacity: 1;"  transform=" translate(-50.91, -34.05)" d="M 20.4083 37.0389 C 20.2083 37.7806 20.6472 38.5417 21.3889 38.7417 C 21.5083 38.775 21.6306 38.7889 21.75 38.7889 C 22.3639 38.7889 22.9222 38.3806 23.0889 37.7611 C 23.6167 35.7861 25.6639 34.5194 27.6778 34.9444 C 28.4306 35.0972 29.1639 34.6222 29.3222 33.8694 C 29.4806 33.1194 29 32.3833 28.2472 32.225 C 27.0639 31.975 25.875 32.0917 24.7806 32.4639 C 21.5417 26.925 22.1722 21.4639 22.1806 21.4056 C 22.2806 20.6472 21.7472 19.95 20.9889 19.8444 C 20.2333 19.7528 19.5333 20.2722 19.4278 21.0306 C 19.3917 21.3 18.65 27.4639 22.3806 33.8472 C 21.4528 34.6833 20.7472 35.775 20.4083 37.0389 Z M 51.4611 30.1778 C 52.5917 29.1306 54.4056 29.15 55.5028 30.2194 C 55.775 30.4806 56.1222 30.6111 56.4722 30.6111 C 56.8361 30.6111 57.1972 30.4694 57.4667 30.1889 C 58 29.6389 57.9889 28.7583 57.4389 28.225 C 56.8 27.6056 56.0361 27.1917 55.225 26.9333 C 56.0472 24.1111 55.7222 22.8583 54.9583 20.5111 C 54.825 20.1028 54.6778 19.6472 54.5222 19.1278 L 54.4389 18.85 C 53.4278 15.4944 52.7583 13.2806 54.6806 10.1556 C 55.0833 9.50278 54.8778 8.64722 54.225 8.24445 C 53.5833 7.84445 52.7195 8.04167 52.3139 8.7 C 49.7361 12.8889 50.6833 16.025 51.7806 19.6556 L 51.8639 19.9333 C 52.0278 20.4722 52.1778 20.9444 52.3167 21.3694 C 53.0028 23.4833 53.2111 24.1917 52.3722 26.7472 C 51.3472 26.9389 50.3667 27.4028 49.5667 28.1472 C 49.0056 28.6694 48.975 29.55 49.4972 30.1111 C 50.0222 30.6722 50.9028 30.7 51.4611 30.1778 Z M 69.1417 21.8861 C 69.95 21.8861 70.7667 21.7167 71.5278 21.3556 C 72.2222 21.0278 72.5194 20.2 72.1917 19.5056 C 71.8667 18.8111 71.0278 18.5222 70.3444 18.8417 C 68.95 19.4972 67.2306 18.9278 66.5 17.5722 C 66.1361 16.8944 65.2889 16.6472 64.6194 17.0028 C 63.9444 17.3639 63.6889 18.2083 64.0528 18.8833 C 64.5528 19.8167 65.2972 20.5528 66.1639 21.0639 C 64.6722 24.6889 65.5194 28.5389 66.2111 30.5806 C 66.4056 31.1611 66.9472 31.525 67.5278 31.525 C 67.675 31.525 67.8222 31.5028 67.9722 31.4528 C 68.7 31.2083 69.0889 30.4194 68.8417 29.6944 C 68.375 28.3111 67.4694 24.8167 68.8361 21.8444 C 68.9417 21.85 69.0389 21.8861 69.1417 21.8861 Z M 82.4667 48.0778 C 82.4139 47.3139 81.7528 46.7111 80.9917 46.7806 C 78.175 46.9806 75.775 44.8444 75.5833 42.05 C 75.5278 41.2861 74.8472 40.7167 74.1028 40.7583 C 73.3389 40.8111 72.7611 41.475 72.8111 42.2389 C 72.925 43.8778 73.55 45.3556 74.5 46.5583 C 72.2667 49.1861 69.3417 49.9333 67.7111 50.125 C 66.2694 50.2972 65.0083 50.15 63.55 49.9778 C 62.2139 49.825 60.7028 49.65 58.8333 49.7056 L 58.8194 49.7083 C 58.7639 48.9139 58.575 47.7556 57.9722 46.7917 C 57.5667 46.1444 56.7083 45.9472 56.0583 46.3528 C 55.4111 46.7583 55.2111 47.6167 55.6195 48.2667 C 55.9917 48.8639 56.0611 49.8167 56.0611 50.2806 C 54.6611 50.7833 53.45 51.5222 52.3556 52.2361 C 50.4 53.5083 48.8583 54.5139 46.5389 53.9917 C 44.4389 53.5111 42.3361 53.4139 40.5528 53.6639 C 40.275 52.9667 39.8361 52.1333 39.1583 51.4917 C 38.6 50.9639 37.7222 50.9861 37.1945 51.5472 C 36.6695 52.1028 36.6917 52.9833 37.25 53.5111 C 37.4889 53.7361 37.6778 54.0639 37.8306 54.3917 C 34.7667 55.6528 33.2306 57.7611 33.1583 57.8639 C 32.7139 58.4861 32.8611 59.3444 33.4778 59.7917 C 33.7222 59.9667 34.0056 60.0528 34.2889 60.0528 C 34.7194 60.0528 35.1444 59.8556 35.4167 59.4833 C 35.4306 59.4611 36.9556 57.4194 39.9639 56.5944 C 41.5195 56.1667 43.75 56.2028 45.925 56.6972 C 46.5333 56.8361 47.0972 56.8833 47.6445 56.8917 C 47.9028 57.4972 48.0028 58.2167 48.0167 58.4833 C 48.0611 59.2222 48.6722 59.7944 49.4028 59.7944 L 49.4778 59.7917 C 50.2417 59.75 50.8278 59.1028 50.7917 58.3389 C 50.7833 58.2 50.7278 57.3778 50.4306 56.4333 C 51.7111 55.9694 52.825 55.2444 53.8722 54.5639 C 55.4611 53.5278 56.9639 52.5472 58.9278 52.4833 C 60.5722 52.425 61.9278 52.5833 63.2361 52.7361 C 64.5528 52.8889 65.8472 52.9889 67.275 52.9056 C 67.5278 53.6083 67.5083 54.5472 67.4694 54.8611 C 67.3778 55.6194 67.9139 56.3139 68.675 56.4139 C 68.7333 56.4222 68.7917 56.425 68.85 56.425 C 69.5361 56.425 70.1333 55.9167 70.225 55.2167 C 70.2472 55.0444 70.3889 53.7944 70.0611 52.4917 C 72.0556 51.9556 74.5278 50.7917 76.575 48.4056 C 77.7722 49.1389 79.1694 49.5694 80.6556 49.5694 C 80.8278 49.5694 81.0028 49.5639 81.175 49.5528 C 81.9389 49.5028 82.5167 48.8445 82.4667 48.0778 Z" stroke-linecap="round" />
</g>
</g>
</g>
</svg>